<svg width="77" height="75" viewBox="0 0 77 75" fill="none" xmlns="http://www.w3.org/2000/svg">
<path d="M38.4414 37.5429C43.4668 37.5429 48.2863 35.5697 51.8398 32.0574C55.3933 28.5451 57.3896 23.7814 57.3896 18.8143C57.3896 13.8472 55.3933 9.08346 51.8398 5.57117C48.2863 2.05888 43.4668 0.0856934 38.4414 0.0856934C33.4161 0.0856934 28.5965 2.05888 25.0431 5.57117C21.4896 9.08346 19.4933 13.8472 19.4933 18.8143C19.4933 23.7814 21.4896 28.5451 25.0431 32.0574C28.5965 35.5697 33.4161 37.5429 38.4414 37.5429ZM51.0735 18.8143C51.0735 22.1257 49.7427 25.3015 47.3737 27.643C45.0047 29.9846 41.7917 31.3 38.4414 31.3C35.0912 31.3 31.8782 29.9846 29.5092 27.643C27.1402 25.3015 25.8093 22.1257 25.8093 18.8143C25.8093 15.5029 27.1402 12.3271 29.5092 9.98554C31.8782 7.64401 35.0912 6.32856 38.4414 6.32856C41.7917 6.32856 45.0047 7.64401 47.3737 9.98554C49.7427 12.3271 51.0735 15.5029 51.0735 18.8143ZM76.3377 68.7572C76.3377 75 70.0217 75 70.0217 75H6.86121C6.86121 75 0.545166 75 0.545166 68.7572C0.545166 62.5143 6.86121 43.7857 38.4414 43.7857C70.0217 43.7857 76.3377 62.5143 76.3377 68.7572ZM70.0217 68.7322C70.0154 67.1965 69.049 62.5767 64.7667 58.3441C60.6487 54.2737 52.8989 50.0286 38.4414 50.0286C23.9777 50.0286 16.2342 54.2737 12.1162 58.3441C7.83388 62.5767 6.87384 67.1965 6.86121 68.7322H70.0217Z" fill="white"/>
</svg>
